<svg viewBox="0 0 38 32" xmlns="http://www.w3.org/2000/svg">
<path d="M36.8425 5.9015H9.06515L8.77337 3.71331C8.77267 3.70844 8.77197 3.70322 8.77093 3.69835C8.4868 1.85515 6.89678 0.4971 5.03167 0.504751H1.23051C0.886562 0.504751 0.6073 0.783665 0.6073 1.12796C0.6073 1.47191 0.886562 1.75117 1.23051 1.75117H5.03202C6.28053 1.74595 7.34541 2.65295 7.53912 3.88615L10.5477 26.4486C10.5484 26.4535 10.5491 26.4584 10.5498 26.4636C10.8343 28.3068 12.4243 29.6648 14.2891 29.6575H14.8121C15.0416 31.01 16.2136 32.0001 17.5859 32.0001C18.9579 32.0001 20.1299 31.01 20.3594 29.6575H25.5653C25.8063 31.0698 27.0697 32.0756 28.5001 31.9935C29.9309 31.9118 31.0712 30.768 31.1495 29.3376C31.2277 27.9068 30.2185 26.6458 28.8055 26.4083C27.3925 26.1711 26.0267 27.0332 25.6331 28.4111H20.2913C19.9466 27.2026 18.8424 26.369 17.5859 26.369C16.3294 26.369 15.2249 27.2026 14.8803 28.4111H14.2894C13.0409 28.416 11.976 27.509 11.7823 26.2758L10.8757 19.4754H30.32C31.9326 19.4747 33.3682 18.453 33.8972 16.9294L37.4316 6.7285C37.4977 6.53792 37.4674 6.32717 37.3503 6.16302C37.2334 5.99887 37.0442 5.90115 36.8425 5.9015ZM28.3384 27.6165C29.2044 27.6165 29.9062 28.3183 29.9062 29.1842C29.9062 30.0502 29.2044 30.7523 28.3384 30.7523C27.4724 30.7523 26.7703 30.0502 26.7703 29.1842C26.7713 28.3186 27.4728 27.6175 28.3384 27.6165ZM17.5852 27.6165C18.4512 27.6165 19.1534 28.3183 19.1534 29.1842C19.1534 30.0502 18.4515 30.7523 17.5856 30.7523C16.7196 30.7523 16.0175 30.0502 16.0175 29.1842C16.0185 28.3186 16.72 27.6175 17.5852 27.6165ZM32.7193 16.5214C32.3646 17.5436 31.4019 18.229 30.32 18.2294H10.7087L9.23104 7.14792H35.9668L32.7193 16.5214Z" fill="inherit"/>
</svg>
