<?xml version="1.0" encoding="utf-8"?><svg viewBox="0 0 38 32" xmlns="http://www.w3.org/2000/svg" xmlns:xlink="http://www.w3.org/1999/xlink"><style>:root>svg{display:none}:root>svg:target{display:block}</style><svg viewBox="0 0 7 13" id="accardion-arr" xmlns="http://www.w3.org/2000/svg"><path d="M.451 6.176L5.906.72a.455.455 0 01.643.643L1.415 6.497 6.55 11.63a.455.455 0 01-.643.643L.45 6.82a.455.455 0 010-.643z" fill="inherit"/></svg><svg viewBox="0 0 38 32" id="basket-ic" xmlns="http://www.w3.org/2000/svg"><path d="M36.843 5.902H9.065l-.292-2.189-.002-.015A3.768 3.768 0 005.03.505h-3.8a.623.623 0 000 1.246h3.801a2.527 2.527 0 012.507 2.135l3.009 22.563.002.015a3.769 3.769 0 003.74 3.194h.522a2.814 2.814 0 005.547 0h5.206a2.814 2.814 0 10.068-1.247h-5.342a2.814 2.814 0 00-5.41 0h-.592a2.528 2.528 0 01-2.507-2.135l-.906-6.8H30.32a3.789 3.789 0 003.577-2.547l3.535-10.2a.622.622 0 00-.59-.827zm-8.505 21.714a1.568 1.568 0 110 3.136 1.568 1.568 0 010-3.136zm-10.753 0a1.568 1.568 0 110 3.136 1.568 1.568 0 010-3.136zM32.72 16.521a2.54 2.54 0 01-2.399 1.708H10.709L9.23 7.148h26.736l-3.248 9.373z" fill="inherit"/></svg><svg viewBox="0 0 16 28" id="slider-arr" xmlns="http://www.w3.org/2000/svg"><path d="M15.226 13.232L2.297.302A1.077 1.077 0 00.774 1.826L12.94 13.993.774 26.161a1.077 1.077 0 001.523 1.523l12.93-12.929c.42-.42.42-1.103 0-1.523z" fill="inherit"/></svg></svg>