<?xml version="1.0" encoding="utf-8"?><svg viewBox="0 0 38 32" xmlns="http://www.w3.org/2000/svg" xmlns:xlink="http://www.w3.org/1999/xlink"><style>:root>svg{display:none}:root>svg:target{display:block}</style><svg viewBox="0 0 38 32" id="basket-ic" xmlns="http://www.w3.org/2000/svg"><path d="M36.843 5.902H9.065l-.292-2.189-.002-.015A3.768 3.768 0 005.03.505h-3.8a.623.623 0 000 1.246h3.801a2.527 2.527 0 012.507 2.135l3.009 22.563.002.015a3.769 3.769 0 003.74 3.194h.522a2.814 2.814 0 005.547 0h5.206a2.814 2.814 0 10.068-1.247h-5.342a2.814 2.814 0 00-5.41 0h-.592a2.528 2.528 0 01-2.507-2.135l-.906-6.8H30.32a3.789 3.789 0 003.577-2.547l3.535-10.2a.622.622 0 00-.59-.827zm-8.505 21.714a1.568 1.568 0 110 3.136 1.568 1.568 0 010-3.136zm-10.753 0a1.568 1.568 0 110 3.136 1.568 1.568 0 010-3.136zM32.72 16.521a2.54 2.54 0 01-2.399 1.708H10.709L9.23 7.148h26.736l-3.248 9.373z" fill="inherit"/></svg><svg viewBox="0 0 20 20" fill="inherit" id="box-ic" xmlns="http://www.w3.org/2000/svg"><path d="M5.082 5.319l8.803-3.774L10.24.047a.632.632 0 00-.48 0L1.005 3.644l4.077 1.675zM15.523 2.218L6.718 5.99 10 7.339l8.995-3.695-3.472-1.426zM9.368 8.446L5.806 6.983v2.77a.632.632 0 01-1.265 0v-3.29L.438 4.778v11.13c0 .256.155.487.392.585L9.368 20V8.446zM10.632 8.446V20l8.538-3.507a.632.632 0 00.392-.585V4.778l-8.93 3.668z" fill="inherit"/></svg><svg viewBox="0 0 31 31" id="insta-ic" xmlns="http://www.w3.org/2000/svg"><path d="M22.608 0H8.391C3.764 0 0 3.764 0 8.391V22.61c0 4.627 3.764 8.39 8.391 8.39H22.61c4.627 0 8.39-3.763 8.39-8.39V8.39C31 3.764 27.237 0 22.61 0zm6.575 22.609a6.581 6.581 0 01-6.575 6.574H8.391a6.581 6.581 0 01-6.574-6.574V8.39a6.581 6.581 0 016.574-6.574H22.61a6.581 6.581 0 016.574 6.574V22.61z" fill="inherit"/><path d="M15.5 7.024c-4.674 0-8.476 3.802-8.476 8.476 0 4.674 3.802 8.476 8.476 8.476 4.674 0 8.476-3.802 8.476-8.476 0-4.674-3.802-8.476-8.476-8.476zm0 15.135A6.667 6.667 0 018.841 15.5 6.667 6.667 0 0115.5 8.841a6.667 6.667 0 016.659 6.659 6.666 6.666 0 01-6.659 6.659zM24.179 4.013a2.507 2.507 0 00-2.505 2.505 2.507 2.507 0 002.505 2.505 2.508 2.508 0 002.505-2.505 2.508 2.508 0 00-2.505-2.505zm0 3.192a.688.688 0 11.002-1.376.688.688 0 01-.002 1.376z" fill="inherit"/></svg><svg fill="none" viewBox="0 0 20 14" id="mail-ic" xmlns="http://www.w3.org/2000/svg"><path d="M18.283.266h-16.1A1.72 1.72 0 00.467 1.982v10.301c0 .95.774 1.717 1.716 1.717h16.1c.94 0 1.717-.764 1.717-1.717v-10.3c0-.943-.765-1.717-1.717-1.717zm-.24 1.144c-.351.35-6.387 6.354-6.596 6.56a1.706 1.706 0 01-1.214.504c-.458 0-.89-.179-1.215-.504L2.424 1.41h15.619zM1.61 12.05V2.216l4.946 4.92-4.946 4.914zm.814.805l4.944-4.912.841.837c.54.54 1.26.838 2.023.838.765 0 1.483-.297 2.022-.837l.843-.838 4.944 4.912H2.425zm16.43-.805L13.91 7.136l4.945-4.92v9.834z" fill="#fff"/></svg><svg viewBox="0 0 16 16" id="search-ic" xmlns="http://www.w3.org/2000/svg"><path d="M14.908 14.394l-4.127-4.126a5.716 5.716 0 001.28-3.608A5.75 5.75 0 006.319.916 5.75 5.75 0 00.574 6.659a5.75 5.75 0 005.744 5.744 5.716 5.716 0 003.608-1.28l4.127 4.126a.603.603 0 00.855 0 .604.604 0 000-.855zm-8.59-3.2a4.54 4.54 0 01-4.534-4.535 4.54 4.54 0 014.534-4.534 4.54 4.54 0 014.535 4.534 4.54 4.54 0 01-4.535 4.535z" fill="inherit"/></svg><svg viewBox="0 0 23 24" id="tg-ic" xmlns="http://www.w3.org/2000/svg"><path d="M11.5 24C17.841 24 23 18.617 23 12S17.841 0 11.5 0 0 5.383 0 12s5.159 12 11.5 12zm0-22.5c5.549 0 10.063 4.71 10.063 10.5S17.049 22.5 11.5 22.5 1.437 17.79 1.437 12 5.952 1.5 11.5 1.5z" fill="inherit"/><path d="M7.567 14.155l1.503-.681-.422.441a.767.767 0 00-.21.53v2.935c0 .672.777.998 1.226.53l1.508-1.574 3.287 1.715c.426.222.94-.041 1.029-.537l1.875-10.761c.099-.579-.447-1.047-.97-.833L4.207 10.897c-.546.222-.619 1.002-.124 1.331L6.894 14.1a.691.691 0 00.673.055zm8.152-6.347l-1.473 8.455-2.895-1.509a.695.695 0 00-.829.141l-.647.676v-.813l2.881-3.007c.56-.583-.07-1.545-.794-1.218l-4.616 2.09-1.298-.864 9.67-3.951z" fill="inherit"/></svg><svg viewBox="0 0 16 16" id="user-ic" xmlns="http://www.w3.org/2000/svg"><g clip-path="url(#gclip0)" fill="inherit"><path d="M7.886 7.707c1.059 0 1.976-.38 2.725-1.129a3.728 3.728 0 001.129-2.725 3.73 3.73 0 00-1.13-2.724A3.73 3.73 0 007.887 0C6.827 0 5.91.38 5.161 1.129a3.729 3.729 0 00-1.129 2.724c0 1.06.38 1.976 1.13 2.725a3.73 3.73 0 002.724 1.13zM14.629 12.303a9.522 9.522 0 00-.13-1.01 7.975 7.975 0 00-.248-1.017 5.023 5.023 0 00-.418-.948 3.576 3.576 0 00-.63-.821 2.778 2.778 0 00-.905-.57c-.351-.138-.74-.208-1.156-.208-.163 0-.321.067-.626.265-.188.123-.408.264-.653.421-.21.134-.493.259-.844.372-.342.11-.69.167-1.032.167-.343 0-.69-.056-1.033-.167a3.73 3.73 0 01-.844-.372 89.424 89.424 0 01-.653-.42c-.305-.2-.463-.266-.626-.266-.416 0-.805.07-1.155.209-.352.14-.657.33-.906.569-.237.227-.45.503-.63.82a5.032 5.032 0 00-.417.949c-.1.313-.184.654-.249 1.016a9.484 9.484 0 00-.13 1.011c-.02.307-.032.624-.032.945 0 .836.266 1.512.79 2.01.517.492 1.2.742 2.033.742h7.704c.832 0 1.516-.25 2.033-.742.524-.498.79-1.174.79-2.01 0-.322-.012-.64-.033-.945z"/></g><defs><clipPath id="gclip0"><rect width="inherit" height="inherit" fill="inherit"/></clipPath></defs></svg><svg viewBox="0 0 24 24" id="viber-ic" xmlns="http://www.w3.org/2000/svg"><g clip-path="url(#hclip0)" fill="inherit"><path d="M23.155 13.893c.716-6.027-.344-9.832-2.256-11.553l.001-.001C17.814-.6 7.392-1.035 3.7 2.471 2.042 4.186 1.458 6.703 1.394 9.819c-.064 3.117-.14 8.956 5.301 10.54H6.7l-.005 2.419s-.037.98.589 1.177c.716.232 1.04-.223 3.267-2.883 3.724.323 6.584-.417 6.909-.525.752-.252 5.007-.815 5.695-6.654zM10.918 19.37s-2.357 2.939-3.09 3.702c-.24.248-.503.225-.499-.267 0-.323.018-4.016.018-4.016-4.613-1.322-4.341-6.294-4.291-8.895.05-2.602.526-4.733 1.93-6.168C8.225.689 17.362 1.368 19.69 3.556c2.846 2.523 1.833 9.651 1.839 9.894-.585 4.874-4.033 5.183-4.667 5.394-.271.09-2.786.737-5.944.526z"/><path d="M12.222 4.297c-.385 0-.385.6 0 .605 2.987.023 5.447 2.105 5.474 5.924 0 .403.59.398.585-.005h-.001c-.032-4.115-2.718-6.501-6.058-6.524z"/><path d="M16.151 10.193c-.009.398.58.417.585.014.049-2.269-1.35-4.138-3.979-4.335-.385-.028-.425.577-.041.605 2.28.173 3.481 1.729 3.435 3.716zM15.52 12.774c-.493-.286-.996-.108-1.204.173l-.435.563c-.221.286-.634.248-.634.248-3.014-.797-3.82-3.951-3.82-3.951s-.037-.427.239-.656l.544-.45c.272-.216.444-.736.167-1.247-.74-1.337-1.237-1.798-1.49-2.152-.266-.333-.666-.408-1.082-.183h-.01c-.864.506-1.811 1.453-1.508 2.428.517 1.028 1.467 4.305 4.495 6.781 1.423 1.171 3.675 2.371 4.63 2.648l.01.014c.942.314 1.858-.67 2.347-1.561v-.007c.217-.431.145-.839-.172-1.106-.562-.548-1.41-1.153-2.076-1.542z"/><path d="M13.169 8.104c.961.056 1.427.558 1.477 1.589.018.403.603.375.585-.028-.064-1.346-.766-2.096-2.03-2.166-.385-.023-.421.582-.032.605z"/></g><defs><clipPath id="hclip0"><rect width="inherit" height="inherit" fill="inherit"/></clipPath></defs></svg><svg viewBox="0 0 24 24" id="wp-ic" xmlns="http://www.w3.org/2000/svg"><path fill-rule="evenodd" clip-rule="evenodd" d="M19.959 4.008a11.077 11.077 0 00-7.887-3.27C5.927.738.925 5.74.922 11.887c0 1.965.513 3.883 1.489 5.574L.829 23.238l5.91-1.55a11.137 11.137 0 005.329 1.357h.004c6.145 0 11.147-5.002 11.15-11.15a11.08 11.08 0 00-3.263-7.887zm-7.887 17.154h-.004a9.256 9.256 0 01-4.716-1.292l-.339-.2-3.507.92.936-3.42-.22-.35a9.244 9.244 0 01-1.417-4.933c.002-5.109 4.16-9.266 9.27-9.266 2.476.001 4.803.966 6.552 2.718a9.212 9.212 0 012.712 6.556c-.002 5.11-4.16 9.267-9.267 9.267zm5.083-6.94c-.278-.14-1.648-.814-1.904-.907-.255-.093-.44-.14-.626.14-.186.278-.72.906-.882 1.092-.163.186-.325.21-.604.07-.278-.14-1.176-.434-2.24-1.383-.828-.739-1.387-1.651-1.55-1.93-.162-.279-.001-.415.122-.568.302-.375.604-.768.697-.953.093-.186.046-.349-.024-.488-.07-.14-.626-1.511-.858-2.069-.227-.543-.456-.47-.627-.478-.163-.008-.349-.01-.534-.01-.186 0-.488.07-.743.349-.256.279-.975.953-.975 2.324s.998 2.696 1.137 2.882c.14.186 1.965 3 4.76 4.206.664.287 1.183.459 1.588.587.667.212 1.274.182 1.754.11.535-.08 1.648-.674 1.88-1.324.233-.651.233-1.209.163-1.325-.07-.116-.255-.186-.534-.325z" fill="inherit"/></svg></svg>