<svg viewBox="0 0 20 20" fill="white" xmlns="http://www.w3.org/2000/svg">
<path d="M5.08246 5.31865L13.8851 1.54475L10.2402 0.0474102C10.0863 -0.0158136 9.9137 -0.0158136 9.75975 0.0474102L1.00543 3.64377L5.08246 5.31865Z" fill="inherit"/>
<path d="M15.5233 2.21777L6.71802 5.99057L9.99996 7.33886L18.9946 3.64378L15.5233 2.21777Z" fill="inherit"/>
<path d="M9.36775 8.44615L5.8056 6.98279V9.75349C5.8056 10.1026 5.52252 10.3857 5.17336 10.3857C4.82421 10.3857 4.54113 10.1026 4.54113 9.75349V6.46333L0.437866 4.77766V15.9077C0.437866 16.1641 0.592685 16.3951 0.829853 16.4926L9.36775 20V8.44615Z" fill="inherit"/>
<path d="M10.6322 8.44615V20L19.1701 16.4926C19.4073 16.3952 19.5621 16.1641 19.5621 15.9077C19.5621 15.4823 19.5621 5.24335 19.5621 4.77766L10.6322 8.44615Z" fill="inherit"/>
</svg>
