<svg viewBox="0 0 31 31" xmlns="http://www.w3.org/2000/svg">
<path d="M22.6085 0H8.3914C3.76431 0 0 3.76431 0 8.3914V22.6088C0 27.2356 3.76431 30.9999 8.3914 30.9999H22.6088C27.2356 30.9999 30.9999 27.2356 30.9999 22.6088V8.3914C30.9999 3.76431 27.2356 0 22.6085 0V0ZM29.1826 22.6088C29.1826 26.2335 26.2335 29.1826 22.6085 29.1826H8.3914C4.7664 29.1826 1.81735 26.2335 1.81735 22.6088V8.3914C1.81735 4.7664 4.7664 1.81735 8.3914 1.81735H22.6088C26.2335 1.81735 29.1826 4.7664 29.1826 8.3914V22.6088Z" fill="inherit"/>
<path d="M15.5 7.02366C10.8261 7.02366 7.02368 10.826 7.02368 15.5C7.02368 20.1739 10.8261 23.9763 15.5 23.9763C20.1739 23.9763 23.9763 20.1739 23.9763 15.5C23.9763 10.826 20.1739 7.02366 15.5 7.02366ZM15.5 22.1589C11.8284 22.1589 8.84103 19.1718 8.84103 15.5C8.84103 11.8284 11.8284 8.84101 15.5 8.84101C19.1718 8.84101 22.159 11.8284 22.159 15.5C22.159 19.1718 19.1718 22.1589 15.5 22.1589Z" fill="inherit"/>
<path d="M24.179 4.01335C22.7977 4.01335 21.6743 5.13701 21.6743 6.518C21.6743 7.89922 22.7977 9.02288 24.179 9.02288C25.5602 9.02288 26.6839 7.89922 26.6839 6.518C26.6839 5.13678 25.5602 4.01335 24.179 4.01335ZM24.179 7.2053C23.8001 7.2053 23.4917 6.89689 23.4917 6.518C23.4917 6.13887 23.8001 5.8307 24.179 5.8307C24.5581 5.8307 24.8665 6.13887 24.8665 6.518C24.8665 6.89689 24.5581 7.2053 24.179 7.2053Z" fill="inherit"/>
</svg>
