<svg width="20" height="14" viewBox="0 0 20 14" fill="none" xmlns="http://www.w3.org/2000/svg">
<path d="M18.2832 0.265625H2.18347C1.23492 0.265625 0.466675 1.03864 0.466675 1.98242V12.2832C0.466675 13.2326 1.24057 14 2.18347 14H18.2832C19.2238 14 20 13.2358 20 12.2832V1.98242C20 1.04032 19.2348 0.265625 18.2832 0.265625ZM18.0428 1.41016C17.692 1.75905 11.6557 7.76356 11.4473 7.97088C11.123 8.29516 10.6919 8.47371 10.2333 8.47371C9.77477 8.47371 9.34366 8.29512 9.01831 7.96981C8.87814 7.83037 2.90846 1.89216 2.4239 1.41016H18.0428ZM1.61121 12.0503V2.2161L6.55703 7.13586L1.61121 12.0503ZM2.42462 12.8555L7.3685 7.94303L8.21008 8.78017C8.75052 9.32062 9.46906 9.61824 10.2333 9.61824C10.9976 9.61824 11.7162 9.32062 12.2555 8.78124L13.0982 7.94303L18.0421 12.8555H2.42462ZM18.8555 12.0503L13.9097 7.13586L18.8555 2.2161V12.0503Z" fill="white"/>
</svg>
