<svg viewBox="0 0 16 16" xmlns="http://www.w3.org/2000/svg">
<path d="M14.9078 14.3942L10.7814 10.2678C11.5807 9.28048 12.0619 8.02591 12.0619 6.65952C12.0619 3.4926 9.4851 0.915771 6.31818 0.915771C3.15127 0.915771 0.574463 3.49257 0.574463 6.65949C0.574463 9.8264 3.15129 12.4032 6.31821 12.4032C7.68461 12.4032 8.93917 11.922 9.92648 11.1227L14.0529 15.2491C14.1708 15.367 14.3256 15.4263 14.4804 15.4263C14.6352 15.4263 14.7899 15.367 14.9078 15.2491C15.1442 15.0127 15.1442 14.6306 14.9078 14.3942ZM6.31821 11.194C3.81756 11.194 1.78368 9.16014 1.78368 6.65949C1.78368 4.15884 3.81756 2.12496 6.31821 2.12496C8.81886 2.12496 10.8527 4.15884 10.8527 6.65949C10.8527 9.16014 8.81883 11.194 6.31821 11.194Z" fill="inherit"/>
</svg>
