<svg viewBox="0 0 23 24" xmlns="http://www.w3.org/2000/svg">
<path d="M11.5 24C17.8413 24 23 18.617 23 12C23 5.383 17.8413 0 11.5 0C5.15871 0 0 5.383 0 12C0 18.617 5.15871 24 11.5 24ZM11.5 1.5C17.0487 1.5 21.5625 6.21 21.5625 12C21.5625 17.79 17.0487 22.5 11.5 22.5C5.95125 22.5 1.4375 17.79 1.4375 12C1.4375 6.21 5.95125 1.5 11.5 1.5Z" fill="inherit"/>
<path d="M7.56701 14.155L9.06968 13.474L8.64801 13.915C8.51289 14.056 8.43718 14.247 8.43718 14.445V17.38C8.43718 18.052 9.21534 18.378 9.66385 17.91L11.1723 16.336L14.4593 18.051C14.8848 18.273 15.3995 18.01 15.4876 17.514L17.3631 6.75301C17.4618 6.17401 16.9156 5.70601 16.3933 5.92001L4.2071 10.897C3.66085 11.119 3.58801 11.899 4.08251 12.228L6.89426 14.1C7.09551 14.234 7.34947 14.255 7.56701 14.155ZM15.7186 7.80801L14.2456 16.263L11.3515 14.754C11.0716 14.608 10.7381 14.669 10.5225 14.895L9.87468 15.571V14.758L12.7564 11.751C13.3151 11.168 12.6864 10.206 11.9619 10.533L7.34564 12.623L6.04805 11.759L15.7186 7.80801Z" fill="inherit"/>
</svg>
