<svg viewBox="0 0 24 24" xmlns="http://www.w3.org/2000/svg">
<g clip-path="url(#clip0)">
<path d="M23.155 13.893C23.871 7.866 22.811 4.061 20.899 2.33999L20.9 2.33899C17.814 -0.600006 7.39202 -1.03501 3.70002 2.47099C2.04202 4.186 1.45802 6.703 1.39402 9.819C1.33002 12.936 1.25402 18.775 6.69502 20.359H6.70002L6.69502 22.778C6.69502 22.778 6.65802 23.758 7.28402 23.955C8.00002 24.187 8.32402 23.732 10.551 21.072C14.275 21.395 17.135 20.655 17.46 20.547C18.212 20.295 22.467 19.732 23.155 13.893ZM10.918 19.37C10.918 19.37 8.56102 22.309 7.82802 23.072C7.58802 23.32 7.32502 23.297 7.32902 22.805C7.32902 22.482 7.34702 18.789 7.34702 18.789C2.73402 17.467 3.00602 12.495 3.05602 9.894C3.10602 7.292 3.58202 5.161 4.98602 3.726C8.22502 0.688994 17.362 1.36799 19.69 3.556C22.536 6.079 21.523 13.207 21.529 13.45C20.944 18.324 17.496 18.633 16.862 18.844C16.591 18.934 14.076 19.581 10.918 19.37Z" fill="inherit"/>
<path d="M12.222 4.297C11.837 4.297 11.837 4.897 12.222 4.902C15.209 4.925 17.669 7.007 17.696 10.826C17.696 11.229 18.286 11.224 18.281 10.821H18.28C18.248 6.706 15.562 4.32 12.222 4.297Z" fill="inherit"/>
<path d="M16.151 10.193C16.142 10.591 16.731 10.61 16.736 10.207C16.785 7.93801 15.386 6.06901 12.757 5.87201C12.372 5.84401 12.332 6.44901 12.716 6.47701C14.996 6.65001 16.197 8.20601 16.151 10.193Z" fill="inherit"/>
<path d="M15.5209 12.774C15.0269 12.488 14.5239 12.666 14.3159 12.947L13.8809 13.51C13.6599 13.796 13.2469 13.758 13.2469 13.758C10.2329 12.961 9.42689 9.807 9.42689 9.807C9.42689 9.807 9.38989 9.38 9.66589 9.151L10.2099 8.701C10.4819 8.485 10.6539 7.965 10.3769 7.454C9.63689 6.117 9.13989 5.656 8.88689 5.302C8.62089 4.969 8.22089 4.894 7.80489 5.119H7.79589C6.93089 5.625 5.98389 6.572 6.28689 7.547C6.80389 8.575 7.75389 11.852 10.7819 14.328C12.2049 15.499 14.4569 16.699 15.4129 16.976L15.4219 16.99C16.3639 17.304 17.2799 16.32 17.7689 15.429V15.422C17.9859 14.991 17.9139 14.583 17.5969 14.316C17.0349 13.768 16.1869 13.163 15.5209 12.774Z" fill="inherit"/>
<path d="M13.169 8.10401C14.13 8.16001 14.596 8.66201 14.646 9.69301C14.664 10.096 15.249 10.068 15.231 9.66501C15.167 8.31901 14.465 7.56901 13.201 7.49901C12.816 7.47601 12.78 8.08101 13.169 8.10401Z" fill="inherit"/>
</g>
<defs>
<clipPath id="clip0">
<rect width="inherit" height="inherit" fill="inherit"/>
</clipPath>
</defs>
</svg>
