<svg viewBox="0 0 24 24" xmlns="http://www.w3.org/2000/svg">
<path fill-rule="evenodd" clip-rule="evenodd" d="M19.9589 4.00809C17.8539 1.90063 15.0545 0.739517 12.0721 0.738281C5.9266 0.738281 0.925079 5.73967 0.922607 11.8868C0.921783 13.8518 1.43512 15.77 2.41084 17.4608L0.829086 23.2383L6.73959 21.6878C8.36818 22.5762 10.2017 23.0444 12.0675 23.0449H12.0722C18.217 23.0449 23.2191 18.0431 23.2214 11.8957C23.2227 8.9165 22.064 6.1154 19.9589 4.00809ZM12.0721 21.162H12.0682C10.4055 21.1613 8.77467 20.7144 7.35167 19.8703L7.01343 19.6694L3.50604 20.5895L4.44221 17.1698L4.2218 16.8192C3.29414 15.3438 2.80429 13.6384 2.80511 11.8875C2.80704 6.77815 6.96426 2.62134 12.0758 2.62134C14.551 2.62216 16.8778 3.58731 18.6273 5.33894C20.3769 7.09057 21.3399 9.41885 21.339 11.895C21.3368 17.0048 17.1799 21.162 12.0721 21.162ZM17.1552 14.2215C16.8767 14.082 15.507 13.4083 15.2515 13.3152C14.9964 13.2222 14.8104 13.1759 14.6249 13.4547C14.4391 13.7335 13.9053 14.3611 13.7427 14.5469C13.5801 14.7328 13.4178 14.7561 13.1391 14.6166C12.8605 14.4772 11.9629 14.1829 10.8987 13.2339C10.0706 12.4952 9.51158 11.5829 9.34898 11.3041C9.18666 11.0251 9.34761 10.8888 9.4712 10.7356C9.77278 10.3611 10.0748 9.96844 10.1676 9.78264C10.2606 9.59669 10.214 9.43396 10.1443 9.29457C10.0748 9.15518 9.51762 7.78395 9.28554 7.22598C9.05922 6.68298 8.82974 6.75632 8.65863 6.7478C8.49631 6.7397 8.3105 6.73805 8.12469 6.73805C7.93902 6.73805 7.63718 6.80768 7.38174 7.08673C7.12645 7.36564 6.40684 8.03952 6.40684 9.41075C6.40684 10.782 7.40509 12.1067 7.54434 12.2926C7.68359 12.4785 9.50883 15.2924 12.3033 16.499C12.968 16.7863 13.4868 16.9575 13.8916 17.0859C14.559 17.298 15.1661 17.268 15.6462 17.1963C16.1815 17.1163 17.2943 16.5223 17.5267 15.8717C17.7587 15.2209 17.7587 14.6632 17.689 14.5469C17.6195 14.4307 17.4337 14.3611 17.1552 14.2215Z" fill="inherit"/>
</svg>
